<?xml version="1.0" standalone="no"?>
<!DOCTYPE svg PUBLIC "-//W3C//DTD SVG 20010904//EN"
 "http://www.w3.org/TR/2001/REC-SVG-20010904/DTD/svg10.dtd">
<svg version="1.0" xmlns="http://www.w3.org/2000/svg"
 width="270.000000pt" height="270.000000pt" viewBox="0 0 270.000000 270.000000"
 preserveAspectRatio="xMidYMid meet">
<metadata>
Created by potrace 1.14, written by Peter Selinger 2001-2017
</metadata>
<g transform="translate(0.000000,270.000000) scale(0.100000,-0.100000)"
fill="#000000" stroke="none">
<path d="M1358 2594 c-2 -2 -20 -4 -41 -6 -20 -1 -37 -6 -37 -12 0 -5 -3 -6
-6 -3 -4 4 -19 -2 -33 -12 -14 -10 -33 -21 -41 -25 -8 -4 -24 -12 -35 -19 -11
-7 -87 -50 -168 -97 -81 -47 -160 -92 -175 -101 -15 -9 -72 -41 -127 -73 -55
-31 -107 -61 -115 -66 -8 -5 -67 -39 -130 -75 -63 -36 -122 -72 -130 -78 -16
-13 -50 -62 -51 -74 -1 -5 -5 -16 -11 -26 -14 -26 -13 -1146 1 -1160 6 -6 11
-17 11 -24 0 -15 68 -93 80 -93 11 0 155 -84 158 -92 2 -5 8 -8 14 -8 6 0 33
-13 60 -30 26 -16 53 -30 58 -30 6 0 9 226 8 597 -1 535 1 602 16 637 23 54
46 73 193 156 70 40 135 79 143 86 8 7 19 13 23 13 4 0 31 15 60 33 29 18 57
33 62 33 6 0 18 7 28 16 10 9 47 31 82 49 58 30 70 32 121 26 31 -3 68 -15 83
-25 14 -10 51 -32 81 -48 168 -92 448 -257 468 -276 55 -51 56 -56 58 -417 2
-421 4 -414 -118 -494 -20 -13 -39 -22 -42 -18 -3 3 -6 1 -6 -5 0 -6 -13 -16
-30 -23 -16 -7 -30 -17 -30 -22 0 -5 -4 -7 -9 -4 -5 3 -19 -2 -32 -12 -13 -10
-37 -26 -54 -34 -45 -23 -246 -139 -276 -159 -14 -9 -44 -22 -65 -28 -66 -17
-103 -7 -209 58 -16 10 -52 30 -80 45 -27 16 -56 33 -63 38 -9 8 -12 -4 -10
-56 2 -36 1 -66 -2 -66 -3 0 -4 -24 -2 -52 2 -51 3 -89 2 -208 0 -62 7 -93 21
-85 5 4 9 2 9 -3 0 -5 18 -17 40 -27 22 -10 40 -22 40 -27 0 -4 9 -8 19 -8 11
0 21 -4 23 -8 2 -4 27 -20 56 -35 59 -31 142 -45 142 -24 0 8 4 7 10 -3 6 -10
10 -11 10 -2 0 6 6 12 13 12 7 0 43 18 80 39 37 22 67 37 67 33 0 -4 5 1 11
11 5 9 14 17 19 17 5 0 47 22 95 50 48 27 91 50 96 50 5 0 9 4 9 8 0 4 12 13
28 20 15 6 41 20 57 30 17 11 75 45 130 76 55 31 107 61 115 66 8 5 68 39 132
75 64 37 130 82 146 99 31 35 58 99 47 116 -3 5 0 10 7 10 9 0 9 3 -2 10 -8 5
-10 10 -5 10 7 0 9 184 8 535 -1 534 -1 535 -24 582 -12 27 -28 51 -35 56 -7
4 -19 13 -26 20 -15 13 -28 21 -143 86 -44 24 -83 49 -86 54 -3 5 -9 8 -13 7
-3 0 -34 15 -67 35 -33 19 -62 35 -64 35 -2 0 -21 12 -42 26 -21 14 -54 33
-73 42 -19 9 -37 18 -40 21 -3 4 -16 12 -29 19 -61 35 -90 51 -139 81 -29 17
-57 31 -62 31 -6 0 -10 5 -10 10 0 6 -4 10 -9 10 -4 0 -45 21 -90 46 -71 41
-144 68 -153 58z"/>
<path d="M1336 1702 c-11 -2 -37 -15 -58 -29 -22 -13 -49 -28 -61 -34 -12 -5
-35 -18 -52 -29 -16 -11 -46 -28 -66 -39 -35 -19 -73 -77 -62 -94 3 -5 5 -41
4 -80 -2 -98 -2 -179 2 -197 5 -28 32 -55 80 -80 26 -14 47 -29 47 -33 0 -5 4
-6 9 -2 5 3 16 -1 24 -9 8 -8 17 -12 21 -9 3 4 6 2 6 -4 0 -5 18 -18 40 -28
22 -10 40 -22 40 -27 0 -5 5 -6 10 -3 6 4 17 2 24 -4 14 -12 47 3 207 95 131
75 123 60 125 248 1 175 -8 211 -53 222 -13 4 -23 10 -23 15 0 5 -5 9 -11 9
-5 0 -53 25 -105 56 -97 57 -115 64 -148 56z"/>
</g>
</svg>
