<svg xmlns="http://www.w3.org/2000/svg" xmlns:xlink="http://www.w3.org/1999/xlink" width="500" height="358"><defs><rect id="a" width="500" height="358"/></defs><clipPath id="b"><use xlink:href="#a" overflow="visible"/></clipPath><path clip-path="url(#b)" class="logo-stack-fill" d="M349.854 99.232c0-5.208-3.689-11.599-8.199-14.203l-79.018-45.62c-4.51-2.604-11.89-2.604-16.4 0l-79.016 45.62c-4.51 2.604-8.2 8.995-8.2 14.203v91.24c0 5.208 3.69 11.6 8.2 14.203l26.111 15.076v-102.011c0-4.663 3.303-10.385 7.341-12.716l46.606-26.908c4.038-2.331 10.644-2.331 14.682 0l46.606 26.908c4.038 2.331 7.341 8.053 7.341 12.716v53.816c0 4.662-3.303 10.384-7.341 12.715l-46.606 26.908c-4.038 2.331-10.645 2.331-14.682 0l-20.04-11.57v39.719l18.998 10.97c4.51 2.604 11.89 2.604 16.4 0l79.018-45.621c4.51-2.604 8.199-8.995 8.199-14.203v-91.242z"/><path clip-path="url(#b)" class="logo-stack-fill" d="M230.519 162.349l20.822 12.022c1.804 1.041 4.756 1.041 6.559 0l20.822-12.022c1.804-1.041 3.279-3.598 3.279-5.681v-24.043c0-2.083-1.476-4.639-3.279-5.68l-20.822-12.022c-1.803-1.041-4.755-1.041-6.559 0l-20.822 12.022c-1.804 1.041-3.28 3.597-3.28 5.68v24.046c.001 2.082 1.476 4.637 3.28 5.678"/><path clip-path="url(#b)" class="logo-stack-fill" d="M85.992 277.711h-15.013v42.231h4.628v-15.577h10.439c8.6 0 13.847-5.85 13.847-13.52.001-7.378-4.883-13.134-13.901-13.134m-1.038 22.482h-9.346v-18.329h9.346c6.486 0 10.239 3.225 10.239 9.056-.001 5.775-3.698 9.273-10.239 9.273"/><rect x="117.252" y="277.711" clip-path="url(#b)" class="logo-stack-fill" width="4.682" height="42.231"/><path clip-path="url(#b)" class="logo-stack-fill" d="M160.355 316.316c-9.51 0-16.634-7.36-16.634-17.382 0-10.13 7.288-17.636 16.835-17.636 3.953 0 7.925 1.294 10.986 3.408l2.149-3.354c-3.753-2.751-8.49-4.244-13.299-4.244-12.152 0-21.426 9.456-21.426 21.898 0 12.226 8.964 21.536 21.097 21.536 4.811 0 9.948-1.458 13.683-4.173l-2.186-3.407c-2.896 1.988-7.104 3.354-11.205 3.354"/><path clip-path="url(#b)" class="logo-stack-fill" d="M209.284 277.109c-12.115 0-21.516 9.201-21.516 21.698 0 12.335 9.164 21.735 21.425 21.735 12.243 0 21.425-9.382 21.425-21.79 0-12.424-9.201-21.643-21.334-21.643m-.092 39.245c-9.602 0-16.67-7.524-16.67-17.527 0-10.002 7.105-17.527 16.688-17.527 9.547 0 16.634 7.489 16.634 17.509.001 10.002-7.05 17.545-16.652 17.545"/><polygon clip-path="url(#b)" class="logo-stack-fill" points="258.947,297.605 246.813,277.71 241.365,277.71 256.487,302.16 256.487,319.942 261.133,319.942 261.133,302.197 276.601,277.71 271.463,277.71"/><path clip-path="url(#b)" class="logo-stack-fill" d="M323.336 305.039c0 6.832-4.72 11.296-11.569 11.296-6.778 0-11.57-4.355-11.57-11.296v-27.328h-4.699v27.31c0 9.347 6.522 15.523 16.159 15.523 9.62 0 16.271-6.177 16.271-15.541v-27.292h-4.592v27.328z"/><polygon clip-path="url(#b)" class="logo-stack-fill" points="377.39,313.22 354.033,277.71 348.677,277.71 348.677,319.942 353.141,319.942 353.104,284.562 376.388,319.942 381.781,319.942 381.781,277.71 377.354,277.71"/><polygon clip-path="url(#b)" class="logo-stack-fill" points="407.686,315.807 407.686,300.722 425.794,300.722 425.794,296.585 407.686,296.585 407.686,281.847 428.474,281.847 428.474,277.71 403.021,277.71 403.021,319.942 429.021,319.942 429.021,315.807"/></svg>